<svg width="105" height="74" viewBox="0 0 105 74" fill="none" xmlns="http://www.w3.org/2000/svg">
<path d="M48.6953 53.2818V52.3227H56.2579V0.959075H48.6953V0H71.0393V0.959075H62.7892V52.3227H71.0393V53.2818H48.6953Z" fill="#213E4D"/>
<path d="M78.4883 53.2818V52.3227H86.0509V0.959075H78.4883V0H100.832V0.959075H92.5822V52.3227H100.832V53.2818H78.4883Z" fill="#213E4D"/>
<path d="M83.9402 24.2964V18.8218H80.8302V21.5567H79.7507V18.8218H76.6407V24.2964H83.9402Z" fill="#C95F25"/>
<path d="M1.20705 27.2253C1.20705 31.8749 3.51554 35.2466 6.69435 35.2466C9.43556 35.2466 11.6038 32.675 12.0804 28.8487C12.1053 28.6355 11.8806 30.0138 11.928 29.7719H25.5484L31.837 28.4751C32.525 28.4751 31.837 27.9148 31.837 27.2253C31.837 26.5372 32.6251 27.7163 31.9355 27.7163L26.4608 26.1222C26.2491 26.1222 12.1452 26.563 12.0804 26.0424C11.6041 22.2162 9.43572 19.2038 6.69435 19.2038C3.5157 19.2038 1.20705 22.574 1.20705 27.2253ZM9.66593 24.6786C9.66593 25.5457 9.30013 26.5061 8.71329 27.2253C9.30015 27.9429 9.66593 28.9048 9.66593 29.7719C9.66593 31.4126 8.33189 32.7482 6.69435 32.7482C5.05366 32.7482 3.71965 31.4126 3.71965 29.7719C3.71965 28.9048 4.08546 27.9444 4.6723 27.2253C4.08543 26.5061 3.71965 25.5457 3.71965 24.6786C3.71965 23.0379 5.0537 21.7039 6.69435 21.7039C8.33037 21.7039 9.66593 23.038 9.66593 24.6786Z" fill="#CD6024"/>
<path d="M23.7246 26.1211H53.8351H83.9456V29.7708H53.8351H23.7246V26.1211Z" fill="#CD6024"/>
<path d="M18.4021 53.4944V53.3533V0.714049H11.0045C8.84529 0.714049 7.06642 1.1139 5.66786 1.9136C4.26929 2.68979 3.16517 3.79526 2.35547 5.23002C1.54578 6.64125 0.969179 8.31122 0.625672 10.2399C0.306702 12.1451 0.147217 14.2149 0.147217 16.4494H0V0H43.7971V16.4494H43.613C43.613 14.2149 43.4413 12.1451 43.0978 10.2399C42.7788 8.31122 42.2145 6.64125 41.4048 5.23002C40.5951 3.79526 39.4787 2.68979 38.0556 1.9136C36.657 1.1139 34.8782 0.714049 32.719 0.714049H25.3949V53.3533V53.4944H18.4021Z" fill="#213E4D"/>
<path d="M54.7736 73.2911V63.669H56.1261V67.9714H60.351V63.669H61.7035V73.2911H60.351V68.5237H56.1261V73.2911H54.7736Z" fill="#213E4D"/>
<path d="M68.5742 73.4656C67.8027 73.4656 67.1009 73.2863 66.4688 72.9278C65.8367 72.5596 65.3347 72.0266 64.9629 71.3289C64.5911 70.6216 64.4052 69.7592 64.4052 68.7417C64.4052 67.9471 64.5074 67.2543 64.7119 66.6632C64.9164 66.0721 65.1906 65.578 65.5346 65.1807C65.8878 64.7737 66.2782 64.4491 66.7058 64.2068C67.1427 63.9549 67.5889 63.7756 68.0444 63.669C68.5092 63.5528 68.9554 63.4946 69.3829 63.4946C70.1638 63.4946 70.8703 63.6739 71.5024 64.0324C72.1345 64.3909 72.6364 64.919 73.0082 65.6167C73.3801 66.3144 73.566 67.172 73.566 68.1894C73.566 68.984 73.4637 69.6768 73.2592 70.2679C73.0547 70.859 72.7759 71.358 72.4226 71.765C72.0694 72.172 71.6743 72.5014 71.2374 72.7533C70.8098 73.0053 70.3636 73.1846 69.8989 73.2911C69.4434 73.4074 69.0018 73.4656 68.5742 73.4656ZM68.9786 72.9859C69.5363 72.9859 70.0104 72.8454 70.4008 72.5644C70.8005 72.2834 71.1212 71.92 71.3629 71.4743C71.6139 71.0285 71.7952 70.544 71.9067 70.0208C72.0276 69.4975 72.088 68.9985 72.088 68.5237C72.088 67.9229 72.0276 67.3561 71.9067 66.8231C71.7952 66.2805 71.6046 65.8057 71.335 65.3987C71.0748 64.9917 70.7215 64.672 70.2753 64.4394C69.8384 64.2068 69.29 64.0906 68.63 64.0906C68.0072 64.3134 67.4913 64.6526 67.0823 65.108C66.6733 65.5634 66.3712 66.0867 66.176 66.6778C65.9808 67.2689 65.8832 67.8842 65.8832 68.5237C65.8832 69.1148 65.9389 69.6816 66.0505 70.2243C66.1713 70.7572 66.3526 71.232 66.5943 71.6487C66.836 72.0654 67.152 72.3948 67.5424 72.6371C67.9421 72.8696 68.4209 72.9859 68.9786 72.9859Z" fill="#213E4D"/>
<path d="M76.154 73.2911L76.6699 63.669H77.9667L81.1876 71.0092L84.2691 63.669H85.6913L86.2072 73.2911H84.785L84.4085 65.0208H84.3527L80.839 73.2911H80.6438L77.1998 65.3551H77.144L76.7675 73.2911H76.154Z" fill="#213E4D"/>
<path d="M89.6327 73.2911V63.669H95.224L95.0846 64.6429L92.4911 64.1923C92.2215 64.1923 91.9706 64.2165 91.7382 64.265C91.5058 64.3037 91.2548 64.3619 90.9852 64.4394V67.9714H94.0807V68.5237H90.9852V72.7679L95.3077 72.3173L95.1683 73.2911H89.6327Z" fill="#213E4D"/>
<path d="M100.837 73.4656C100.288 73.4656 99.7676 73.3977 99.2749 73.2621C98.7915 73.1264 98.4151 73.0053 98.1455 72.8987V72.2156C98.3035 72.2931 98.5173 72.3948 98.7869 72.5208C99.0565 72.6371 99.3539 72.7388 99.6793 72.826C100.005 72.9132 100.321 72.9568 100.627 72.9568C101.241 72.9568 101.734 72.7921 102.105 72.4627C102.487 72.1235 102.677 71.6487 102.677 71.0382C102.677 70.6603 102.57 70.3357 102.356 70.0644C102.143 69.7931 101.864 69.546 101.52 69.3231C101.185 69.1002 100.827 68.8871 100.446 68.6836C100.065 68.4704 99.7025 68.2427 99.3586 68.0004C99.0239 67.7485 98.7497 67.4578 98.5359 67.1283C98.3221 66.7892 98.2152 66.3919 98.2152 65.9365C98.2152 65.5586 98.3128 65.1855 98.508 64.8173C98.7032 64.4394 99.0146 64.1245 99.4422 63.8725C99.8698 63.6206 100.432 63.4946 101.129 63.4946C101.511 63.4946 101.924 63.5431 102.37 63.64C102.817 63.7369 103.202 63.8386 103.528 63.9452L103.388 64.9336C102.849 64.6913 102.315 64.4927 101.785 64.3377C101.255 64.1729 100.716 64.0906 100.167 64.0906C99.8977 64.2262 99.7072 64.4055 99.5956 64.6283C99.4934 64.8415 99.4422 65.0789 99.4422 65.3406C99.4422 65.7282 99.5538 66.0721 99.7769 66.3725C100 66.6632 100.288 66.9346 100.641 67.1865C101.004 67.4287 101.38 67.6661 101.771 67.8987C102.171 68.1313 102.547 68.3832 102.9 68.6545C103.263 68.9258 103.556 69.2311 103.779 69.5702C104.002 69.9094 104.113 70.3066 104.113 70.7621C104.113 71.2659 103.992 71.7262 103.751 72.1429C103.509 72.5499 103.147 72.8745 102.663 73.1167C102.18 73.3493 101.571 73.4656 100.837 73.4656Z" fill="#213E4D"/>
<path d="M6.02746 73.2911V64.3667C5.87873 64.328 5.73 64.2989 5.58127 64.2795C5.43254 64.2601 5.26521 64.2504 5.0793 64.2504L3.19694 64.701L3.11328 63.669H10.2941L10.2244 64.701L8.32812 64.2504C8.14221 64.2504 7.97488 64.2601 7.82616 64.2795C7.67743 64.2989 7.5287 64.328 7.37997 64.3667V73.2911H6.02746Z" fill="#213E4D"/>
<path d="M18.3417 73.4946L15.1068 68.6981H14.0332V73.2911H12.6667V63.669H15.6785C16.2827 63.669 16.8265 63.7659 17.3099 63.9597C17.7932 64.1439 18.1743 64.42 18.4532 64.7882C18.7414 65.1468 18.8855 65.5925 18.8855 66.1254C18.8855 66.8134 18.6345 67.3609 18.1325 67.7679C17.6306 68.1652 16.9938 68.4365 16.2223 68.5818L19.9591 73.2911L18.3417 73.4946ZM14.0332 68.2621H14.9255C15.6041 68.2621 16.12 68.1603 16.4733 67.9568C16.8358 67.7533 17.0868 67.4966 17.2262 67.1865C17.3656 66.8667 17.4353 66.5373 17.4353 66.1981C17.4353 66.1497 17.4214 66.0431 17.3935 65.8783C17.3749 65.7039 17.3192 65.5101 17.2262 65.297C17.1332 65.0741 16.9799 64.8658 16.7661 64.672C16.5616 64.4685 16.2734 64.3134 15.9016 64.2068C15.632 64.2068 15.3113 64.2311 14.9395 64.2795C14.5769 64.328 14.2748 64.3861 14.0332 64.4539V68.2621Z" fill="#213E4D"/>
<path d="M22.5344 73.2911V63.669H23.8172V73.2911H22.5344Z" fill="#213E4D"/>
<path d="M26.4729 73.2911L29.9587 68.6254L26.6402 63.669H28.3831L30.6977 67.6661L33.5979 63.669H34.4485L31.0045 68.1167L34.6437 73.2911H32.9008L30.2794 69.047L27.3234 73.2911H26.4729Z" fill="#213E4D"/>
<path d="M37.2997 73.2911V63.669H38.5825V73.2911H37.2997Z" fill="#213E4D"/>
<path d="M44.4731 73.4656C43.9246 73.4656 43.404 73.3977 42.9114 73.2621C42.428 73.1264 42.0515 73.0053 41.782 72.8987V72.2156C41.94 72.2931 42.1538 72.3948 42.4234 72.5208C42.6929 72.6371 42.9904 72.7388 43.3157 72.826C43.6411 72.9132 43.9571 72.9568 44.2639 72.9568C44.8774 72.9568 45.3701 72.7921 45.7419 72.4627C46.123 72.1235 46.3136 71.6487 46.3136 71.0382C46.3136 70.6603 46.2067 70.3357 45.9929 70.0644C45.7791 69.7931 45.5002 69.546 45.1563 69.3231C44.8216 69.1002 44.4637 68.8871 44.0826 68.6836C43.7015 68.4704 43.339 68.2427 42.995 68.0004C42.6604 67.7485 42.3862 67.4578 42.1724 67.1283C41.9586 66.7892 41.8517 66.3919 41.8517 65.9365C41.8517 65.5586 41.9493 65.1855 42.1445 64.8173C42.3397 64.4394 42.6511 64.1245 43.0787 63.8725C43.5063 63.6206 44.0687 63.4946 44.7659 63.4946C45.147 63.4946 45.5606 63.5431 46.0068 63.64C46.453 63.7369 46.8388 63.8386 47.1641 63.9452L47.0247 64.9336C46.4855 64.6913 45.951 64.4927 45.4212 64.3377C44.8913 64.1729 44.3522 64.0906 43.8038 64.0906C43.5342 64.2262 43.3436 64.4055 43.2321 64.6283C43.1298 64.8415 43.0787 65.0789 43.0787 65.3406C43.0787 65.7282 43.1903 66.0721 43.4133 66.3725C43.6364 66.6632 43.9246 66.9346 44.2778 67.1865C44.6404 67.4287 45.0168 67.6661 45.4073 67.8987C45.807 68.1313 46.1834 68.3832 46.5367 68.6545C46.8992 68.9258 47.192 69.2311 47.4151 69.5702C47.6382 69.9094 47.7498 70.3066 47.7498 70.7621C47.7498 71.2659 47.6289 71.7262 47.3872 72.1429C47.1455 72.5499 46.783 72.8745 46.2996 73.1167C45.8163 73.3493 45.2074 73.4656 44.4731 73.4656Z" fill="#213E4D"/>
</svg>
