<svg width="10" height="10" viewBox="0 0 10 10" fill="none" xmlns="http://www.w3.org/2000/svg">
<path d="M9.50028 0.747314V7.24731C9.50028 7.37992 9.4476 7.5071 9.35383 7.60087C9.26006 7.69464 9.13289 7.74731 9.00028 7.74731C8.86767 7.74731 8.74049 7.69464 8.64672 7.60087C8.55296 7.5071 8.50028 7.37992 8.50028 7.24731V1.95419L1.35403 9.10106C1.26021 9.19489 1.13296 9.24759 1.00028 9.24759C0.867596 9.24759 0.740348 9.19489 0.646528 9.10106C0.552708 9.00724 0.5 8.88 0.5 8.74731C0.5 8.61463 0.552708 8.48738 0.646528 8.39356L7.7934 1.24731H2.50028C2.36767 1.24731 2.24049 1.19464 2.14672 1.10087C2.05296 1.0071 2.00028 0.879923 2.00028 0.747314C2.00028 0.614706 2.05296 0.487529 2.14672 0.393761C2.24049 0.299993 2.36767 0.247314 2.50028 0.247314H9.00028C9.13289 0.247314 9.26006 0.299993 9.35383 0.393761C9.4476 0.487529 9.50028 0.614706 9.50028 0.747314Z" fill="white"/>
</svg>
